<svg width="22" height="22" viewBox="0 0 22 22" fill="none" xmlns="http://www.w3.org/2000/svg">
<path fill-rule="evenodd" clip-rule="evenodd" d="M15.9237 13.7628C14.5695 13.5255 13.219 12.5311 12.4052 11.0121C11.4433 9.21633 11.5122 7.21155 12.4411 5.93853C12.5363 5.80805 12.6406 5.68526 12.7537 5.57117C12.9718 5.35113 12.9087 4.94053 12.602 4.89042C12.402 4.85774 12.1988 4.83453 11.9928 4.82128C11.8579 4.8126 11.7218 4.8082 11.5846 4.8082C8.14736 4.8082 5.3609 7.57696 5.3609 10.9924C5.3609 14.4079 8.14736 17.1766 11.5846 17.1766C13.5406 17.1766 15.2858 16.2801 16.4268 14.8779C16.5564 14.7186 16.6783 14.5528 16.7917 14.381C16.9534 14.1362 16.7291 13.8253 16.4346 13.816C16.265 13.8106 16.0943 13.7927 15.9237 13.7628Z" stroke="#C8BCF6" stroke-width="1.32519"/>
</svg>
