<svg width="2554" height="761" viewBox="0 0 2554 761" fill="none" xmlns="http://www.w3.org/2000/svg">
<path d="M2403 166.259C2347.87 160.673 2289.43 162.48 2234.36 161.134C2097.69 157.793 1960.98 158.406 1824.49 157.397C1569.17 155.512 1313.91 154.654 1058.62 152.355C926.971 151.169 794.165 148.497 663.535 155.975C518.334 164.288 371.821 167.657 227.593 180.442C196.757 183.175 156.926 180.621 152.061 211.997C144.694 259.508 222.997 266.457 260.888 272.411C359.196 287.86 457.408 302.588 555.576 319.245C659.455 336.872 760.06 338.728 864.189 338.799C957.655 338.863 1050.45 347.904 1144.01 351.976C1241.46 356.217 1337.16 347.235 1433.9 344.863C1535.28 342.377 1636.78 340.176 1738.03 336.808C1828.06 333.813 1917.25 325.414 2007.34 322.474C2056.53 320.868 2110.45 318.718 2160.25 326.419C2172.89 328.374 2188.84 329.448 2200.2 335.249C2257.91 364.727 2298.35 423.482 2311.65 475.53C2317.93 500.113 2305.73 517.936 2278.01 524.261C2229.31 535.368 2175.75 537.83 2125.32 542.725C1858.44 568.631 1584.93 557.674 1316.54 574.771C1178.41 583.571 1039.56 588.598 901.29 596.784C796.82 602.969 692.741 603.781 587.299 601.486C495.029 599.478 402.594 602.802 310.258 597.171C277.491 595.172 245.993 598.943 213.421 593.417" stroke="#EFEFFD" stroke-width="301.489" stroke-linecap="round"/>
<g clip-path="url(#clip0_2020_184)">
<g clip-path="url(#clip1_2020_184)">
<g clip-path="url(#clip2_2020_184)">
<path d="M1933.86 141.337C1934.2 141.172 1934.41 140.828 1934.41 140.451C1934.41 140.074 1934.2 139.73 1933.86 139.565C1930.54 137.948 1928.34 136.473 1926.49 134.632C1924.65 132.792 1923.17 130.596 1921.55 127.289C1921.38 126.951 1921.04 126.736 1920.66 126.736C1920.28 126.736 1919.94 126.951 1919.77 127.289C1916.67 133.607 1913.8 136.475 1907.46 139.565C1907.12 139.73 1906.91 140.074 1906.91 140.451C1906.91 140.828 1907.12 141.172 1907.46 141.337C1910.78 142.954 1912.98 144.429 1914.83 146.269C1916.67 148.11 1918.15 150.306 1919.77 153.613C1919.82 153.712 1919.89 153.801 1919.96 153.877C1920.14 154.059 1920.39 154.166 1920.66 154.166C1921.04 154.166 1921.38 153.951 1921.55 153.613C1924.65 147.295 1927.52 144.427 1933.86 141.337Z" fill="#F97068"/>
</g>
</g>
</g>
<g clip-path="url(#clip3_2020_184)">
<g clip-path="url(#clip4_2020_184)">
<g clip-path="url(#clip5_2020_184)">
<path d="M1850.06 108.126C1847.66 109.326 1845.83 110.531 1844.28 112.071C1842.74 113.611 1841.53 115.442 1840.33 117.836C1839.07 115.334 1837.87 113.575 1836.37 112.075C1834.86 110.574 1833.1 109.38 1830.59 108.126C1832.99 106.926 1834.83 105.722 1836.37 104.181C1837.92 102.641 1839.13 100.81 1840.33 98.416C1841.59 100.918 1842.78 102.677 1844.29 104.178C1845.79 105.678 1847.56 106.873 1850.06 108.126Z" stroke="#FCB0AC" stroke-width="2"/>
</g>
</g>
</g>
<path d="M784.442 750.505C784.172 750.373 784 750.097 784 749.794C784 749.492 784.172 749.216 784.443 749.084C787.088 747.787 788.845 746.604 790.317 745.127C791.789 743.651 792.969 741.889 794.263 739.237C794.395 738.966 794.67 738.793 794.972 738.793C795.273 738.793 795.548 738.966 795.681 739.237C798.153 744.304 800.447 746.605 805.501 749.084C805.772 749.216 805.943 749.492 805.943 749.795C805.943 750.097 805.772 750.373 805.501 750.505C802.856 751.802 801.099 752.985 799.627 754.462C798.154 755.938 796.974 757.7 795.681 760.352C795.642 760.432 795.591 760.503 795.53 760.564C795.384 760.71 795.185 760.795 794.972 760.795C794.67 760.795 794.395 760.623 794.263 760.352C791.791 755.284 789.496 752.984 784.442 750.505Z" fill="#FFB24B"/>
<g clip-path="url(#clip6_2020_184)">
<g clip-path="url(#clip7_2020_184)">
<g clip-path="url(#clip8_2020_184)">
<path d="M922.839 728.121C924.834 729.141 926.383 730.177 927.696 731.493C929.008 732.809 930.042 734.362 931.059 736.362C932.12 734.276 933.145 732.78 934.426 731.497C935.706 730.213 937.197 729.184 939.279 728.121C937.284 727.101 935.735 726.064 934.422 724.748C933.11 723.433 932.076 721.879 931.059 719.879C929.998 721.966 928.973 723.461 927.692 724.745C926.412 726.029 924.921 727.057 922.839 728.121ZM931.336 736.918C931.336 736.919 931.336 736.918 931.336 736.918Z" stroke="#FFD59C" stroke-width="2"/>
</g>
</g>
</g>
<path d="M1834.41 410.967C1824.89 416.461 1824.89 430.195 1834.41 435.688L1909.34 478.95C1918.86 484.444 1930.75 477.577 1930.75 466.59L1930.75 380.066C1930.75 369.079 1918.86 362.212 1909.34 367.705L1834.41 410.967Z" fill="#FFB24B"/>
<defs>
<clipPath id="clip0_2020_184">
<rect width="28" height="28" fill="white" transform="translate(1906.5 126.328)"/>
</clipPath>
<clipPath id="clip1_2020_184">
<rect width="28" height="28" fill="white" transform="translate(1906.5 126.328)"/>
</clipPath>
<clipPath id="clip2_2020_184">
<rect width="28" height="28" fill="white" transform="translate(1906.5 126.328)"/>
</clipPath>
<clipPath id="clip3_2020_184">
<rect width="23" height="23" fill="white" transform="translate(1829 96.8276)"/>
</clipPath>
<clipPath id="clip4_2020_184">
<rect width="23" height="23" fill="white" transform="translate(1829 96.8276)"/>
</clipPath>
<clipPath id="clip5_2020_184">
<rect width="23" height="23" fill="white" transform="translate(1829 96.8276)"/>
</clipPath>
<clipPath id="clip6_2020_184">
<rect width="20" height="20" fill="white" transform="translate(921.173 738.033) rotate(-90)"/>
</clipPath>
<clipPath id="clip7_2020_184">
<rect width="20" height="20" fill="white" transform="translate(921.173 738.033) rotate(-90)"/>
</clipPath>
<clipPath id="clip8_2020_184">
<rect width="20" height="20" fill="white" transform="translate(921.173 738.033) rotate(-90)"/>
</clipPath>
</defs>
</svg>
