<svg width="1280" height="730" viewBox="0 0 1280 730" fill="none" xmlns="http://www.w3.org/2000/svg">
<path opacity="0.24" d="M1139.25 80.1446C1114.99 79.5189 1089.39 83.5144 1065.45 85.6915C964.024 94.912 862.71 107.476 762.203 122.497C563.373 152.213 364.773 199.373 181.176 276.019C150.043 289.016 117.977 302.15 88.476 318.204C87.2969 318.846 76.3016 323.768 81.2917 324.521C116.735 329.868 153.631 328.718 189.209 328.186C328.451 326.103 467.425 316.568 606.225 308.303C724.368 301.268 842.613 294.244 960.946 289.577C1022.91 287.133 1085.17 285.102 1147.26 288.572C1162.96 289.448 1183.23 289.248 1198.42 294.591C1199.84 295.092 1199.99 295.997 1198.74 296.822C1189.72 302.72 1172.19 304.347 1162.35 306.498C1053.99 330.179 945.324 351.942 837.881 378.985C712.243 410.607 587.947 446.327 466.79 490.297C384.81 520.049 304.348 553.237 225.13 588.745C184.971 606.745 147.043 626.493 110.351 649.922" stroke="#FFD59C" stroke-width="159.223" stroke-linecap="round"/>
<path d="M880.237 544.505C879.966 544.372 879.794 544.096 879.794 543.794C879.794 543.492 879.966 543.216 880.237 543.083C882.882 541.786 884.639 540.603 886.111 539.127C887.584 537.651 888.764 535.889 890.057 533.237C890.189 532.966 890.465 532.793 890.766 532.793C891.068 532.793 891.343 532.965 891.475 533.237C893.947 538.304 896.241 540.605 901.295 543.083C901.566 543.216 901.738 543.492 901.738 543.794C901.738 544.096 901.566 544.372 901.295 544.505C898.65 545.802 896.893 546.985 895.421 548.461C893.949 549.938 892.768 551.699 891.475 554.352C891.436 554.431 891.385 554.503 891.324 554.563C891.179 554.709 890.979 554.795 890.766 554.795C890.465 554.795 890.19 554.623 890.057 554.351C887.585 549.284 885.291 546.984 880.237 544.505Z" fill="#FFB24B"/>
<g clip-path="url(#clip0_2011_182)">
<g clip-path="url(#clip1_2011_182)">
<g clip-path="url(#clip2_2011_182)">
<path d="M1018.63 522.12C1020.63 523.14 1022.18 524.177 1023.49 525.493C1024.8 526.808 1025.84 528.362 1026.85 530.362C1027.91 528.275 1028.94 526.78 1030.22 525.496C1031.5 524.212 1032.99 523.184 1035.07 522.12C1033.08 521.1 1031.53 520.064 1030.22 518.748C1028.9 517.432 1027.87 515.879 1026.85 513.879C1025.79 515.966 1024.77 517.461 1023.49 518.745C1022.21 520.028 1020.72 521.057 1018.63 522.12ZM1027.13 530.918C1027.13 530.918 1027.13 530.918 1027.13 530.918Z" stroke="#FFD59C" stroke-width="2"/>
</g>
</g>
</g>
<g clip-path="url(#clip3_2011_182)">
<g clip-path="url(#clip4_2011_182)">
<g clip-path="url(#clip5_2011_182)">
<path d="M1099.86 73.337C1100.2 73.1715 1100.41 72.8276 1100.41 72.4508C1100.41 72.0741 1100.2 71.7301 1099.86 71.5647C1096.54 69.9479 1094.34 68.4729 1092.49 66.6323C1090.65 64.7918 1089.17 62.5958 1087.55 59.2893C1087.38 58.9511 1087.04 58.7362 1086.66 58.7362C1086.28 58.7362 1085.94 58.9508 1085.77 59.2892C1082.67 65.6066 1079.8 68.4747 1073.46 71.5647C1073.12 71.7303 1072.91 72.0742 1072.91 72.4509C1072.91 72.8276 1073.12 73.1715 1073.46 73.337C1076.78 74.9538 1078.98 76.4289 1080.83 78.2693C1082.67 80.1099 1084.15 82.3059 1085.77 85.6124C1085.82 85.712 1085.89 85.8007 1085.96 85.8765C1086.14 86.0584 1086.39 86.1655 1086.66 86.1654C1087.04 86.1654 1087.38 85.9508 1087.55 85.6124C1090.65 79.295 1093.52 76.427 1099.86 73.337Z" fill="#F97068"/>
</g>
</g>
</g>
<g clip-path="url(#clip6_2011_182)">
<g clip-path="url(#clip7_2011_182)">
<g clip-path="url(#clip8_2011_182)">
<path d="M1016.06 40.1263C1013.66 41.326 1011.83 42.5307 1010.28 44.0709C1008.74 45.6111 1007.53 47.4424 1006.33 49.8364C1005.07 47.3339 1003.87 45.5753 1002.37 44.0748C1000.86 42.5744 999.101 41.3799 996.592 40.1262C998.993 38.9264 1000.83 37.7216 1002.37 36.1814C1003.92 34.6412 1005.13 32.81 1006.33 30.416C1007.59 32.9184 1008.78 34.6771 1010.29 36.1775C1011.79 37.678 1013.56 38.8725 1016.06 40.1263Z" stroke="#FCB0AC" stroke-width="2"/>
</g>
</g>
</g>
<g clip-path="url(#clip9_2011_182)">
<g clip-path="url(#clip10_2011_182)">
<path d="M164.622 87.3361C164.927 87.1871 165.121 86.8776 165.121 86.5385C165.121 86.1994 164.927 85.8898 164.622 85.741C161.638 84.2858 159.656 82.9584 157.995 81.3019C156.335 79.6455 155.003 77.669 153.544 74.6932C153.395 74.3888 153.085 74.1954 152.745 74.1954C152.405 74.1954 152.095 74.3885 151.945 74.6931C149.157 80.3787 146.569 82.96 140.868 85.741C140.562 85.89 140.369 86.1995 140.369 86.5386C140.369 86.8776 140.562 87.1871 140.868 87.3361C143.852 88.7912 145.833 90.1187 147.494 91.7752C149.155 93.4316 150.486 95.4081 151.945 98.3839C151.989 98.4735 152.047 98.5534 152.115 98.6216C152.279 98.7853 152.505 98.8817 152.745 98.8816C153.085 98.8816 153.395 98.6885 153.544 98.3839C156.333 92.6983 158.921 90.117 164.622 87.3361Z" fill="#5D5FEA"/>
</g>
</g>
<g clip-path="url(#clip11_2011_182)">
<g clip-path="url(#clip12_2011_182)">
<g clip-path="url(#clip13_2011_182)">
<path d="M208.955 113.816C206.555 115.016 204.719 116.221 203.174 117.761C201.63 119.301 200.422 121.132 199.219 123.526C197.962 121.024 196.764 119.265 195.26 117.765C193.755 116.264 191.992 115.07 189.483 113.816C191.883 112.616 193.72 111.412 195.264 109.872C196.808 108.331 198.016 106.5 199.219 104.106C200.476 106.609 201.674 108.367 203.178 109.868C204.683 111.368 206.446 112.563 208.955 113.816Z" stroke="#A6A7F3" stroke-width="2"/>
</g>
</g>
</g>
<defs>
<clipPath id="clip0_2011_182">
<rect width="20" height="20" fill="white" transform="translate(1016.97 532.033) rotate(-90)"/>
</clipPath>
<clipPath id="clip1_2011_182">
<rect width="20" height="20" fill="white" transform="translate(1016.97 532.033) rotate(-90)"/>
</clipPath>
<clipPath id="clip2_2011_182">
<rect width="20" height="20" fill="white" transform="translate(1016.97 532.033) rotate(-90)"/>
</clipPath>
<clipPath id="clip3_2011_182">
<rect width="28" height="28" fill="white" transform="translate(1072.5 58.3276)"/>
</clipPath>
<clipPath id="clip4_2011_182">
<rect width="28" height="28" fill="white" transform="translate(1072.5 58.3276)"/>
</clipPath>
<clipPath id="clip5_2011_182">
<rect width="28" height="28" fill="white" transform="translate(1072.5 58.3276)"/>
</clipPath>
<clipPath id="clip6_2011_182">
<rect width="23" height="23" fill="white" transform="translate(995 28.8276)"/>
</clipPath>
<clipPath id="clip7_2011_182">
<rect width="23" height="23" fill="white" transform="translate(995 28.8276)"/>
</clipPath>
<clipPath id="clip8_2011_182">
<rect width="23" height="23" fill="white" transform="translate(995 28.8276)"/>
</clipPath>
<clipPath id="clip9_2011_182">
<rect width="26" height="26" fill="white" transform="translate(140 73.8276)"/>
</clipPath>
<clipPath id="clip10_2011_182">
<rect width="26" height="26" fill="white" transform="translate(140 73.8276)"/>
</clipPath>
<clipPath id="clip11_2011_182">
<rect width="23" height="23" fill="white" transform="translate(187.89 102.518)"/>
</clipPath>
<clipPath id="clip12_2011_182">
<rect width="23" height="23" fill="white" transform="translate(187.89 102.518)"/>
</clipPath>
<clipPath id="clip13_2011_182">
<rect width="23" height="23" fill="white" transform="translate(187.89 102.518)"/>
</clipPath>
</defs>
</svg>
