<svg width="360" height="317" viewBox="0 0 360 317" fill="none" xmlns="http://www.w3.org/2000/svg">
<path d="M345.866 29C337.164 30.0844 328.231 32.892 319.791 34.9614C284.039 43.7257 248.513 53.6783 213.404 64.4659C143.95 85.8065 75.5188 113.369 14.0392 150.659C3.61382 156.983 -7.13736 163.406 -16.8144 170.733C-17.2012 171.027 -20.8653 173.378 -19.0414 173.378C-6.08651 173.378 7.03685 170.978 19.7225 168.869C69.3716 160.617 118.523 149.716 167.681 139.278C209.522 130.394 251.401 121.508 293.439 113.459C315.45 109.245 337.589 105.162 359.971 103.054C365.624 102.521 372.858 101.356 378.575 102.447C379.112 102.549 379.214 102.864 378.808 103.227C375.905 105.821 369.725 107.348 366.327 108.646C328.88 122.952 291.22 136.589 254.279 152.047C211.084 170.122 168.59 189.59 127.663 211.836C99.97 226.889 73.005 243.088 46.609 260.049C33.2279 268.647 20.7382 277.749 8.88887 288.101" stroke="#F8F6F5" stroke-width="57.546" stroke-linecap="round"/>
<path d="M20.4954 131.559C20.6259 131.495 20.7086 131.363 20.7086 131.218C20.7086 131.073 20.6258 130.941 20.4954 130.878C19.2212 130.256 18.3749 129.689 17.6656 128.982C16.9564 128.275 16.3879 127.431 15.7649 126.16C15.7012 126.03 15.5686 125.947 15.4234 125.947C15.2782 125.947 15.1457 126.03 15.0819 126.16C13.8911 128.588 12.7859 129.69 10.3513 130.878C10.2209 130.941 10.1382 131.073 10.1382 131.218C10.1382 131.363 10.2209 131.495 10.3513 131.559C11.6256 132.18 12.4719 132.747 13.1811 133.455C13.8904 134.162 14.4588 135.006 15.0819 136.277C15.1007 136.315 15.1253 136.349 15.1545 136.378C15.2247 136.448 15.3209 136.489 15.4234 136.489C15.5686 136.489 15.7011 136.407 15.7649 136.277C16.9557 133.849 18.061 132.746 20.4954 131.559Z" fill="#5D5FEA"/>
<path d="M349.744 152.415C349.8 152.301 349.917 152.228 350.045 152.228C350.173 152.228 350.29 152.301 350.346 152.415C350.896 153.537 351.397 154.281 352.023 154.906C352.649 155.53 353.396 156.03 354.52 156.578C354.635 156.634 354.708 156.751 354.708 156.879C354.708 157.006 354.635 157.123 354.52 157.179C352.372 158.227 351.397 159.199 350.346 161.342C350.29 161.456 350.173 161.529 350.045 161.529C349.917 161.529 349.8 161.456 349.744 161.342C349.194 160.22 348.692 159.476 348.067 158.852C347.441 158.228 346.694 157.727 345.57 157.179C345.536 157.163 345.506 157.141 345.48 157.115C345.418 157.053 345.382 156.969 345.382 156.879C345.382 156.751 345.455 156.634 345.57 156.578C347.718 155.53 348.693 154.558 349.744 152.415Z" fill="#FFB24B"/>
<path d="M309.378 69.7532C309.516 69.6831 309.604 69.5375 309.604 69.3779C309.604 69.2183 309.516 69.0727 309.378 69.0027C308.026 68.3179 307.128 67.6933 306.376 66.9138C305.624 66.1344 305.021 65.2044 304.36 63.8041C304.292 63.6609 304.151 63.5699 303.997 63.5699C303.843 63.5699 303.703 63.6607 303.635 63.8041C302.372 66.4794 301.199 67.694 298.617 69.0027C298.478 69.0728 298.391 69.2184 298.391 69.378C298.391 69.5375 298.478 69.6831 298.617 69.7532C299.969 70.4379 300.866 71.0626 301.619 71.842C302.371 72.6215 302.974 73.5515 303.635 74.9518C303.655 74.9939 303.681 75.0315 303.712 75.0636C303.787 75.1406 303.889 75.186 303.997 75.186C304.151 75.186 304.292 75.0951 304.36 74.9517C305.623 72.2764 306.795 71.0618 309.378 69.7532Z" fill="#F97068"/>
</svg>
