<svg width="72" height="17" viewBox="0 0 72 17" fill="none" xmlns="http://www.w3.org/2000/svg">
<g clip-path="url(#clip0_18_817)">
<mask id="mask0_18_817" style="mask-type:luminance" maskUnits="userSpaceOnUse" x="0" y="0" width="72" height="17">
<path d="M71.2641 0.89296H0.888672V16.6557H71.2641V0.89296Z" fill="white"/>
</mask>
<g mask="url(#mask0_18_817)">
<path d="M40.8165 9.70289C40.0737 8.83777 39.0318 8.34855 37.9132 8.34855C35.7434 8.34855 33.9814 10.2102 33.9814 12.4976C33.9814 14.7851 35.7434 16.6467 37.9132 16.6467C39.0318 16.6467 40.0737 16.1575 40.8165 15.2924V16.5063H42.2117V6.6998H40.8165V9.70289ZM38.1078 15.3693C36.613 15.3693 35.3992 14.0875 35.3992 12.5112C35.3992 10.9349 36.613 9.65307 38.1078 9.65307C39.6025 9.65307 40.8119 10.9349 40.8165 12.5067V12.5203C40.8119 14.092 39.598 15.3739 38.1078 15.3739V15.3693Z" fill="#303030"/>
<path d="M59.6052 9.70737C58.8624 8.84224 57.8205 8.34853 56.7019 8.34853C54.5322 8.34853 52.77 10.2102 52.77 12.4976C52.77 14.785 54.5322 16.6466 56.7019 16.6466C57.8205 16.6466 58.8624 16.1575 59.6052 15.2878V16.5017H61.0004V8.48442H59.6052V9.69833V9.70737ZM56.8965 15.3693C55.4017 15.3693 54.1877 14.0874 54.1877 12.5112C54.1877 10.9349 55.4017 9.65304 56.8965 9.65304C58.3913 9.65304 59.6052 10.9349 59.6052 12.5112C59.6052 14.0874 58.3913 15.3693 56.8965 15.3693Z" fill="#303030"/>
<path d="M33.0483 15.0342C32.8626 15.1338 32.3643 15.3739 31.7256 15.3739C30.8786 15.3739 30.6431 14.6129 30.6386 14.2143V9.73007H33.2521V8.4935H27.7261V9.73007H29.2389V14.2098C29.2389 15.0206 29.5016 15.6774 29.9999 16.1031C30.4121 16.4564 30.9828 16.6512 31.6124 16.6512C32.5138 16.6512 33.2884 16.2209 33.5782 16.0352L33.6734 15.9763L33.157 14.9707L33.0437 15.0296L33.0483 15.0342Z" fill="#303030"/>
<path d="M47.5881 8.34853C45.3371 8.34853 43.5024 10.2102 43.5024 12.5021C43.5024 14.7941 45.3371 16.6557 47.5881 16.6557C48.5846 16.6557 49.4815 16.3703 50.2426 15.8087C50.8542 15.3557 51.1983 14.8529 51.3204 14.6536L51.3841 14.5494L50.256 13.8338L50.1881 13.938C49.9706 14.2686 49.1374 15.3512 47.5839 15.3512C46.2612 15.3512 45.1376 14.3456 44.9205 12.9913H51.6466L51.6558 12.8781C51.6649 12.7512 51.6737 12.6244 51.6737 12.5066C51.6737 10.2192 49.8394 8.35307 47.5881 8.35307V8.34853ZM45.9033 10.2781C46.3878 9.87497 46.9677 9.65754 47.5881 9.65754C48.7887 9.65754 49.8348 10.4819 50.1793 11.6777L44.9972 11.6868C45.1559 11.1342 45.473 10.6405 45.9079 10.2781H45.9033Z" fill="#303030"/>
<path d="M26.4258 12.6108C25.9004 12.262 25.2391 12.0763 24.5959 11.8997C23.6493 11.637 22.834 11.4105 22.834 10.722C22.834 10.0335 23.4047 9.6485 24.3287 9.6485C25.1395 9.6485 25.7419 9.97916 25.9593 10.1196L26.0635 10.1875L26.7248 9.13666L26.6387 9.06871C26.4304 8.90111 25.6513 8.34853 24.3287 8.34853C22.7705 8.34853 21.4026 9.45828 21.4026 10.7265C21.4026 12.3119 22.8068 12.7059 24.0433 13.0592C25.0262 13.3355 25.8778 13.5801 25.8778 14.3411C25.8778 14.9662 25.2527 15.3376 24.2109 15.3376C23.228 15.3376 22.5033 14.8031 22.236 14.5766L22.1409 14.4951L21.312 15.5097L21.3981 15.5912C21.6744 15.8404 22.7026 16.6557 24.4328 16.6557C26.0635 16.6557 27.3408 15.6365 27.3408 14.3366C27.3408 13.5892 27.0419 13.0275 26.4258 12.6154V12.6108Z" fill="#303030"/>
<path d="M64.0345 5.8936H62.6396V16.5109H64.0345V5.8936Z" fill="#303030"/>
<path d="M9.128 9.70737V8.49346H7.73291V16.5107H9.128V11.877C9.26389 11.252 9.62626 10.6812 10.1426 10.269C10.6454 9.87043 11.2478 9.6485 11.8367 9.6485H12.1583V8.34853H12.036C10.9172 8.34853 9.87538 8.84224 9.13254 9.70737H9.128Z" fill="#303030"/>
<path d="M18.6215 13.9244C18.2546 14.622 17.4981 15.3557 16.4518 15.3557C15.4055 15.3557 14.486 14.5178 14.486 13.4896V8.4935H13.1045V13.5394C13.1045 15.2561 14.477 16.6512 16.1619 16.6512C17.0361 16.6512 17.9194 16.2526 18.626 15.546V16.5062H20.012V8.4935H18.626V13.9244H18.6215Z" fill="#303030"/>
<path d="M6.31958 14.9753L6.20634 15.0387C6.02062 15.1384 5.5224 15.3784 4.88371 15.3784C4.0367 15.3784 3.80117 14.6175 3.79663 14.2189V9.73916H6.41019V8.50259H3.79663V5.88452H2.50119V8.49809H0.888672V9.73916H2.40154V14.2189C2.40154 15.0297 2.66425 15.6864 3.1625 16.1122C3.57469 16.4655 4.14541 16.6603 4.77501 16.6603C5.67638 16.6603 6.45093 16.23 6.74084 16.0488L6.83596 15.9899L6.31958 14.9844V14.9753Z" fill="#303030"/>
<path d="M30.4348 7.20259L29.0669 7.13011C29.0759 6.958 29.0896 6.78133 29.1122 6.60922C29.1484 6.33743 29.2028 6.06114 29.2707 5.79843C30.0317 2.90859 32.6497 0.892944 35.6393 0.892944C37.9266 0.892944 40.0192 2.05703 41.2332 4.00021C41.3328 4.15874 41.4281 4.32633 41.5094 4.48941C41.6002 4.67059 41.6861 4.85628 41.7631 5.04654L40.4904 5.55384C40.4316 5.40436 40.3637 5.25488 40.2912 5.10994C40.2233 4.97859 40.1508 4.84723 40.0738 4.72042C39.1135 3.18036 37.4554 2.25633 35.6438 2.25633C33.2748 2.25633 31.2003 3.85526 30.5979 6.13816C30.5435 6.34651 30.4982 6.56394 30.4711 6.78133C30.4574 6.91722 30.4439 7.05765 30.4348 7.19351V7.20259Z" fill="#303030"/>
<path d="M70.3492 12.6108C69.8238 12.262 69.1623 12.0763 68.5191 11.8997C67.5725 11.637 66.7572 11.4105 66.7572 10.722C66.7572 10.0335 67.328 9.6485 68.252 9.6485C69.0627 9.6485 69.6651 9.97916 69.8826 10.1196L69.9867 10.1875L70.6479 9.13666L70.5621 9.06871C70.3538 8.90111 69.5747 8.34853 68.252 8.34853C66.6939 8.34853 65.3258 9.45828 65.3258 10.7265C65.3258 12.3119 66.7301 12.7059 67.9666 13.0592C68.9494 13.3355 69.801 13.5801 69.801 14.3411C69.801 14.9662 69.176 15.3376 68.1341 15.3376C67.1513 15.3376 66.4265 14.8031 66.1594 14.5766L66.064 14.4951L65.2354 15.5097L65.3212 15.5912C65.5978 15.8404 66.626 16.6557 68.3561 16.6557C69.9867 16.6557 71.2641 15.6365 71.2641 14.3366C71.2641 13.5892 70.965 13.0275 70.3492 12.6154V12.6108Z" fill="#303030"/>
</g>
</g>
<defs>
<clipPath id="clip0_18_817">
<rect width="70.3754" height="15.7628" fill="white" transform="translate(0.888672 0.89296)"/>
</clipPath>
</defs>
</svg>
