<svg width="61" height="20" viewBox="0 0 61 20" fill="none" xmlns="http://www.w3.org/2000/svg">
<g clip-path="url(#clip0_18_833)">
<path d="M22.2012 3.66539H25.0542L27.8013 8.85374H27.919L30.6661 3.66539H33.5191L29.1249 11.4538V15.7128H26.5954V11.4538L22.2012 3.66539Z" fill="#303030"/>
<path d="M35.6929 15.8834C35.1165 15.8834 34.6027 15.7833 34.1518 15.5833C33.7007 15.3794 33.3438 15.0794 33.0811 14.6833C32.8223 14.2833 32.6929 13.7853 32.6929 13.1892C32.6929 12.6872 32.7851 12.2656 32.9694 11.9244C33.1537 11.5832 33.4046 11.3087 33.7223 11.1009C34.04 10.893 34.4008 10.7362 34.8047 10.6303C35.2125 10.5244 35.64 10.4499 36.0871 10.4067C36.6126 10.3519 37.0361 10.3008 37.3577 10.2538C37.6793 10.2028 37.9126 10.1283 38.0577 10.0303C38.2028 9.93223 38.2754 9.78714 38.2754 9.59495V9.55964C38.2754 9.18712 38.1577 8.89883 37.9224 8.69492C37.6911 8.491 37.3616 8.38904 36.9341 8.38904C36.4832 8.38904 36.1243 8.48904 35.8577 8.68905C35.591 8.88515 35.4145 9.1322 35.3282 9.43025L33.0105 9.24204C33.1282 8.69296 33.3595 8.21848 33.7046 7.81846C34.0498 7.41454 34.4949 7.10469 35.04 6.88898C35.589 6.66936 36.2243 6.55959 36.9459 6.55959C37.4479 6.55959 37.9283 6.61841 38.3871 6.73607C38.8499 6.85373 39.2597 7.03609 39.6166 7.28313C39.9774 7.53018 40.2617 7.84785 40.4695 8.23607C40.6774 8.62045 40.7813 9.08125 40.7813 9.61847V15.7128H38.4048V14.4598H38.3342C38.1891 14.7421 37.995 14.9912 37.7518 15.2068C37.5087 15.4186 37.2165 15.5853 36.8753 15.7069C36.5341 15.8245 36.14 15.8834 35.6929 15.8834ZM36.4106 14.1539C36.7792 14.1539 37.1048 14.0813 37.3871 13.9362C37.6695 13.7872 37.8911 13.5872 38.0518 13.3362C38.2126 13.0853 38.293 12.8009 38.293 12.4833V11.5244C38.2146 11.5754 38.1067 11.6225 37.9695 11.6656C37.8361 11.7048 37.6851 11.7421 37.5165 11.7774C37.3479 11.8087 37.1792 11.8382 37.0106 11.8656C36.842 11.8891 36.6891 11.9107 36.5518 11.9303C36.2576 11.9734 36.0008 12.0421 35.7812 12.1362C35.5616 12.2303 35.391 12.3578 35.2694 12.5186C35.1478 12.6754 35.087 12.8715 35.087 13.1068C35.087 13.448 35.2106 13.7088 35.4577 13.8892C35.7086 14.0657 36.0263 14.1539 36.4106 14.1539Z" fill="#303030"/>
<path d="M46.0549 15.8598C45.3686 15.8598 44.747 15.6833 44.1901 15.3304C43.6372 14.9735 43.198 14.45 42.8725 13.7597C42.5509 13.0656 42.3901 12.2146 42.3901 11.2067C42.3901 10.1715 42.5568 9.31063 42.8901 8.62435C43.2235 7.9341 43.6666 7.41844 44.2196 7.07725C44.7764 6.73216 45.3863 6.55958 46.049 6.55958C46.5549 6.55958 46.9765 6.64584 47.3138 6.81842C47.655 6.98702 47.9295 7.19882 48.1373 7.45375C48.3491 7.70471 48.5099 7.95175 48.6197 8.19489H48.6961V3.66539H51.1962V15.7128H48.7256V14.2656H48.6197C48.502 14.5166 48.3353 14.7656 48.1197 15.0128C47.9079 15.2559 47.6314 15.4579 47.2902 15.6186C46.953 15.7794 46.5412 15.8598 46.0549 15.8598ZM46.849 13.8657C47.253 13.8657 47.5942 13.7558 47.8726 13.5362C48.1549 13.3127 48.3706 13.0009 48.5197 12.6009C48.6726 12.2009 48.7491 11.7322 48.7491 11.195C48.7491 10.6577 48.6746 10.1911 48.5256 9.79495C48.3765 9.39885 48.1609 9.09297 47.8785 8.87726C47.5961 8.66162 47.253 8.55373 46.849 8.55373C46.4373 8.55373 46.0902 8.66553 45.8079 8.88905C45.5255 9.11258 45.3118 9.42237 45.1667 9.81847C45.0216 10.2146 44.949 10.6734 44.949 11.195C44.949 11.7205 45.0216 12.1852 45.1667 12.5891C45.3157 12.9892 45.5294 13.3029 45.8079 13.5303C46.0902 13.7539 46.4373 13.8657 46.849 13.8657Z" fill="#303030"/>
<path d="M55.8336 15.8834C55.2571 15.8834 54.7433 15.7833 54.2924 15.5833C53.8414 15.3794 53.4845 15.0794 53.2218 14.6833C52.9629 14.2833 52.8335 13.7853 52.8335 13.1892C52.8335 12.6872 52.9257 12.2656 53.11 11.9244C53.2943 11.5832 53.5453 11.3087 53.8629 11.1009C54.1806 10.893 54.5414 10.7362 54.9453 10.6303C55.3532 10.5244 55.7806 10.4499 56.2277 10.4067C56.7532 10.3519 57.1767 10.3008 57.4983 10.2538C57.8199 10.2028 58.0532 10.1283 58.1983 10.0303C58.3434 9.93223 58.416 9.78714 58.416 9.59495V9.55964C58.416 9.18712 58.2983 8.89883 58.063 8.69492C57.8317 8.491 57.5023 8.38904 57.0748 8.38904C56.6238 8.38904 56.265 8.48904 55.9983 8.68905C55.7316 8.88515 55.5552 9.1322 55.4688 9.43025L53.1512 9.24204C53.2688 8.69296 53.5002 8.21848 53.8453 7.81846C54.1904 7.41454 54.6355 7.10469 55.1806 6.88898C55.7296 6.66936 56.365 6.55959 57.0866 6.55959C57.5885 6.55959 58.069 6.61841 58.5278 6.73607C58.9906 6.85373 59.4003 7.03609 59.7572 7.28313C60.118 7.53018 60.4023 7.84785 60.6102 8.23607C60.8181 8.62045 60.922 9.08125 60.922 9.61847V15.7128H58.5454V14.4598H58.4748C58.3297 14.7421 58.1356 14.9912 57.8925 15.2068C57.6493 15.4186 57.3571 15.5853 57.0159 15.7069C56.6748 15.8245 56.2807 15.8834 55.8336 15.8834ZM56.5512 14.1539C56.9199 14.1539 57.2454 14.0813 57.5278 13.9362C57.8101 13.7872 58.0317 13.5872 58.1925 13.3362C58.3533 13.0853 58.4337 12.8009 58.4337 12.4833V11.5244C58.3552 11.5754 58.2474 11.6225 58.1101 11.6656C57.9768 11.7048 57.8258 11.7421 57.6571 11.7774C57.4885 11.8087 57.3199 11.8382 57.1513 11.8656C56.9827 11.8891 56.8297 11.9107 56.6924 11.9303C56.3983 11.9734 56.1414 12.0421 55.9218 12.1362C55.7022 12.2303 55.5316 12.3578 55.41 12.5186C55.2884 12.6754 55.2277 12.8715 55.2277 13.1068C55.2277 13.448 55.3513 13.7088 55.5983 13.8892C55.8493 14.0657 56.1669 14.1539 56.5512 14.1539Z" fill="#303030"/>
<path d="M17.2913 7.21427V4.88702L15.2758 3.72357L13.261 4.8867L10.843 3.49068V1.16377L8.82758 0L6.8121 1.16377V3.49068L4.39348 4.88702L2.37805 3.72324L0.362932 4.88702V7.21427L2.37837 8.37773V11.1714L2.37677 11.1704L0.361328 12.3341V14.6614L2.37677 15.8248L4.3922 14.6614V14.6604L6.8121 16.0578V18.385L8.82758 19.5487L10.843 18.385V16.0578L13.2565 14.6643L15.2672 15.8252L17.2826 14.6617V12.3345L15.2771 11.1765V8.37736L17.2913 7.21427ZM8.82758 5.01437L12.6236 7.2059L8.82758 9.39744L5.03151 7.2059L8.82758 5.01437ZM4.70528 12.1542V7.75858L8.50679 9.95335V14.3489L4.70528 12.1542ZM9.14836 14.3489V9.95335L12.9499 7.75858V12.1542L9.14836 14.3489Z" fill="#303030"/>
</g>
<defs>
<clipPath id="clip0_18_833">
<rect width="60.5604" height="19.5487" fill="white" transform="translate(0.361328)"/>
</clipPath>
</defs>
</svg>
