<svg width="176" height="33" viewBox="0 0 176 33" fill="none" xmlns="http://www.w3.org/2000/svg">
<g clip-path="url(#clip0_18_690)">
<g clip-path="url(#clip1_18_690)">
<g clip-path="url(#clip2_18_690)">
<path d="M17.1167 8.22881C16.2367 8.22881 15.4686 8.82527 15.2509 9.67777L14.1792 13.8636H5.57612C4.69535 13.8636 3.92644 14.4616 3.70958 15.3156L1.04248 25.8198H5.68532L7.52214 18.4869H13.1204C15.7642 18.4869 18.0717 16.6942 18.7249 14.1321L20.2353 8.22876L17.1167 8.22881Z" fill="white"/>
<path d="M4.9995 10.6306L5.93975 6.94255H13.7939C14.6747 6.94255 15.4436 6.3446 15.6604 5.49079L16.4659 2.31934H6.99862C4.35525 2.31934 2.04775 4.11209 1.39408 6.67414L0.0151367 12.0796H3.13373C4.01373 12.0796 4.78148 11.4833 4.9995 10.6306Z" fill="white"/>
<path d="M175.985 17.0598C175.985 11.5673 172.822 8.19531 167.537 8.19531C163.157 8.19531 159.125 11.7411 159.125 17.1989C159.125 22.9696 163.262 26.3414 167.955 26.3414C172.162 26.3414 174.871 23.8733 175.741 20.9187L173.37 20.2136C172.612 19.9882 171.774 20.2336 171.308 20.8731C170.638 21.7932 169.578 22.3784 167.99 22.3784C165.695 22.3784 163.782 20.7447 163.678 18.4849H175.916C175.916 18.4152 175.985 17.7199 175.985 17.0598ZM163.782 15.3215C163.887 13.7575 165.208 11.9495 167.607 11.9495C170.249 11.9495 171.361 13.6182 171.431 15.3215H163.782Z" fill="white"/>
<path d="M28.487 8.19531C24.1066 8.19531 20.0742 11.7411 20.0742 17.1989C20.0742 22.9696 24.2121 26.3414 28.9051 26.3414C33.1111 26.3414 35.8223 23.8733 36.6909 20.9187L34.3213 20.2136C33.5629 19.9882 32.7236 20.2336 32.257 20.8731C31.5871 21.7932 30.5283 22.3784 28.9389 22.3784C26.6446 22.3784 24.7332 20.7447 24.6289 18.4849H36.8652C36.8652 18.4152 36.9341 17.7199 36.9341 17.0598C36.9341 11.5673 33.7712 8.19531 28.487 8.19531ZM24.7332 15.3215C24.8372 13.7575 26.1577 11.9495 28.5563 11.9495C31.1982 11.9495 32.3116 13.6182 32.3805 15.3215H24.7332Z" fill="white"/>
<path d="M43.5129 11.2541V10.6435C43.5129 9.5794 42.6502 8.71675 41.5868 8.71675H39.0293V25.8198H43.6522V17.9985C43.6522 14.3134 45.7044 13.1662 48.0676 13.1662C48.4844 13.1662 48.9363 13.2007 49.4582 13.305V8.64707C49.1106 8.61204 48.763 8.57739 48.3801 8.57739C46.9206 8.57739 44.5571 8.99478 43.5129 11.2541Z" fill="white"/>
<path d="M58.8783 15.4608L56.4443 14.9393C55.5055 14.7654 54.8804 14.2439 54.8804 13.4098C54.8804 12.4366 55.8535 11.7061 57.0708 11.7061C59.0176 11.7061 59.7466 12.9925 59.8859 14.0004L63.7455 13.1319C63.5358 11.2893 61.9016 8.19531 57.0355 8.19531C53.3506 8.19531 50.6394 10.7333 50.6394 13.792C50.6394 16.1906 52.1343 18.1724 55.4366 18.9023L57.6959 19.4238C59.0176 19.7019 59.5384 20.3275 59.5384 21.0925C59.5384 21.9962 58.809 22.7956 57.2791 22.7956C55.9356 22.7956 55.0394 22.2396 54.5608 21.4668C54.127 20.7685 53.3505 20.3639 52.5473 20.5395L50.1875 21.0573C50.3961 23.0046 52.1682 26.3414 57.3141 26.3414C61.7976 26.3414 63.9526 23.4911 63.9526 20.7097C63.9526 18.207 62.2506 16.1562 58.8783 15.4608Z" fill="white"/>
<path d="M75.9608 8.33447C73.389 8.33447 71.4773 9.48105 70.7117 10.8022V10.6435C70.7117 9.57933 69.8494 8.71668 68.7846 8.71668H66.2271V32.4249H70.8511V24.151C71.6859 25.2984 73.4229 26.2371 75.7877 26.2371C80.6199 26.2371 83.853 22.4133 83.853 17.2335C83.853 12.1578 80.9674 8.33447 75.9608 8.33447ZM75.0571 22.1001C72.6935 22.1001 70.7821 20.2929 70.7821 17.2679C70.7821 14.2429 72.6935 12.4709 75.0571 12.4709C77.4207 12.4709 79.2982 14.2437 79.2982 17.2679C79.2982 20.3273 77.4218 22.1001 75.0571 22.1001Z" fill="white"/>
<path d="M93.8108 8.19531C89.4304 8.19531 85.3979 11.7411 85.3979 17.1989C85.3979 22.9696 89.5347 26.3414 94.2276 26.3414C98.4348 26.3414 101.146 23.8733 102.014 20.9187L99.645 20.2136C98.8867 19.9882 98.0473 20.2336 97.5808 20.8731C96.9109 21.7932 95.852 22.3784 94.2626 22.3784C91.9683 22.3784 90.0569 20.7447 89.9527 18.4849H102.189C102.189 18.4152 102.258 17.7199 102.258 17.0598C102.258 11.5673 99.0949 8.19531 93.8108 8.19531ZM90.057 15.3215C90.1609 13.7575 91.4814 11.9495 93.8801 11.9495C96.5219 11.9495 97.6354 13.6182 97.7043 15.3215H90.057Z" fill="white"/>
<path d="M116.145 20.4947C115.511 21.3747 114.449 22.1003 112.839 22.1003C110.475 22.1003 108.459 20.3625 108.459 17.268C108.459 14.1736 110.439 12.471 112.804 12.471C115.098 12.471 116.177 13.9313 116.593 15.3565L120.73 13.9659C120 11.0804 117.358 8.19531 112.7 8.19531C107.73 8.19531 103.835 11.9847 103.835 17.268C103.835 22.5177 107.799 26.3414 112.839 26.3414C117.393 26.3414 120.069 23.4214 120.834 20.5709L118.35 19.7423C117.529 19.4686 116.652 19.7926 116.145 20.4947Z" fill="white"/>
<path d="M137.938 0.39502C136.373 0.39502 135.087 1.68095 135.087 3.27994C135.087 4.80984 136.373 6.09577 137.938 6.09577C139.538 6.09577 140.789 4.80984 140.789 3.27994C140.789 1.68095 139.538 0.39502 137.938 0.39502Z" fill="white"/>
<path d="M138.323 8.71687H129.478V3.60669H125.307V6.86271C125.307 7.88674 124.476 8.71683 123.452 8.71683H121.795V12.8186H124.889V20.7794C124.889 24.0823 126.975 26.0635 130.312 26.0635C131.668 26.0635 132.502 25.8198 132.919 25.6461V21.8224C132.676 21.8921 132.051 21.961 131.494 21.961C130.174 21.961 129.478 21.4747 129.478 19.9798V12.8186H135.627V25.8199H140.25V10.6437C140.25 9.57952 139.387 8.71687 138.323 8.71687Z" fill="white"/>
<path d="M154.912 8.7168L150.845 20.1882L147.07 9.97562C146.79 9.21893 146.069 8.7168 145.263 8.7168H141.527L148.516 25.8198H153.139L159.779 8.7168H154.912Z" fill="white"/>
</g>
</g>
</g>
<defs>
<clipPath id="clip0_18_690">
<rect width="176" height="32.03" fill="white" transform="translate(0 0.39502)"/>
</clipPath>
<clipPath id="clip1_18_690">
<rect width="176" height="32.03" fill="white" transform="translate(0 0.39502)"/>
</clipPath>
<clipPath id="clip2_18_690">
<rect width="175.97" height="32.03" fill="white" transform="translate(0.0151367 0.39502)"/>
</clipPath>
</defs>
</svg>
