<svg width="1280" height="761" viewBox="0 0 1280 761" fill="none" xmlns="http://www.w3.org/2000/svg">
<path d="M1699 166.259C1643.87 160.673 1585.43 162.48 1530.36 161.134C1393.69 157.793 1256.98 158.406 1120.49 157.397C865.167 155.512 609.908 154.654 354.619 152.355C222.971 151.169 90.165 148.497 -40.4646 155.975C-185.666 164.288 -332.179 167.657 -476.407 180.442C-507.243 183.175 -547.074 180.621 -551.939 211.997C-559.306 259.508 -481.003 266.457 -443.112 272.411C-344.804 287.86 -246.592 302.588 -148.424 319.245C-44.5454 336.872 56.0595 338.728 160.189 338.799C253.655 338.863 346.448 347.904 440.014 351.976C537.455 356.217 633.163 347.235 729.905 344.863C831.283 342.377 932.777 340.176 1034.03 336.808C1124.06 333.813 1213.25 325.414 1303.34 322.474C1352.53 320.868 1406.45 318.718 1456.25 326.419C1468.89 328.374 1484.84 329.448 1496.2 335.249C1553.91 364.727 1594.35 423.482 1607.65 475.53C1613.93 500.113 1601.73 517.936 1574.01 524.261C1525.31 535.368 1471.75 537.83 1421.32 542.725C1154.44 568.631 880.926 557.674 612.537 574.771C474.409 583.571 335.557 588.598 197.29 596.784C92.8203 602.969 -11.2595 603.781 -116.701 601.486C-208.971 599.478 -301.406 602.802 -393.742 597.171C-426.509 595.172 -458.007 598.943 -490.579 593.417" stroke="#EFEFFD" stroke-width="301.489" stroke-linecap="round"/>
<g clip-path="url(#clip0_2020_183)">
<g clip-path="url(#clip1_2020_183)">
<g clip-path="url(#clip2_2020_183)">
<path d="M1229.86 141.337C1230.2 141.172 1230.41 140.828 1230.41 140.451C1230.41 140.074 1230.2 139.73 1229.86 139.565C1226.54 137.948 1224.34 136.473 1222.49 134.632C1220.65 132.792 1219.17 130.596 1217.55 127.289C1217.38 126.951 1217.04 126.736 1216.66 126.736C1216.28 126.736 1215.94 126.951 1215.77 127.289C1212.67 133.607 1209.8 136.475 1203.46 139.565C1203.12 139.73 1202.91 140.074 1202.91 140.451C1202.91 140.828 1203.12 141.172 1203.46 141.337C1206.78 142.954 1208.98 144.429 1210.83 146.269C1212.67 148.11 1214.15 150.306 1215.77 153.612C1215.82 153.712 1215.89 153.801 1215.96 153.877C1216.14 154.058 1216.39 154.166 1216.66 154.165C1217.04 154.165 1217.38 153.951 1217.55 153.612C1220.65 147.295 1223.52 144.427 1229.86 141.337Z" fill="#F97068"/>
</g>
</g>
</g>
<g clip-path="url(#clip3_2020_183)">
<g clip-path="url(#clip4_2020_183)">
<g clip-path="url(#clip5_2020_183)">
<path d="M1146.06 108.126C1143.66 109.326 1141.83 110.531 1140.28 112.071C1138.74 113.611 1137.53 115.442 1136.33 117.836C1135.07 115.334 1133.87 113.575 1132.37 112.075C1130.86 110.574 1129.1 109.38 1126.59 108.126C1128.99 106.926 1130.83 105.722 1132.37 104.181C1133.92 102.641 1135.13 100.81 1136.33 98.416C1137.59 100.918 1138.78 102.677 1140.29 104.178C1141.79 105.678 1143.56 106.873 1146.06 108.126Z" stroke="#FCB0AC" stroke-width="2"/>
</g>
</g>
</g>
<path d="M80.4424 750.505C80.1717 750.373 80 750.097 80 749.794C80 749.492 80.1718 749.216 80.4425 749.084C83.0878 747.787 84.8446 746.604 86.317 745.127C87.7893 743.651 88.9694 741.889 90.2628 739.237C90.395 738.966 90.6702 738.793 90.9716 738.793C91.2731 738.793 91.5482 738.966 91.6806 739.237C94.1526 744.304 96.447 746.605 101.501 749.084C101.772 749.216 101.943 749.492 101.943 749.795C101.943 750.097 101.772 750.373 101.501 750.505C98.8557 751.802 97.0988 752.985 95.6265 754.462C94.1541 755.938 92.974 757.7 91.6806 760.352C91.6416 760.432 91.5905 760.503 91.5298 760.564C91.3843 760.71 91.1845 760.795 90.9717 760.795C90.6703 760.795 90.3952 760.623 90.2628 760.352C87.7907 755.284 85.4963 752.984 80.4424 750.505Z" fill="#FFB24B"/>
<g clip-path="url(#clip6_2020_183)">
<g clip-path="url(#clip7_2020_183)">
<g clip-path="url(#clip8_2020_183)">
<path d="M218.839 728.121C220.834 729.14 222.383 730.177 223.696 731.493C225.008 732.809 226.042 734.362 227.059 736.362C228.12 734.275 229.145 732.78 230.426 731.496C231.706 730.213 233.197 729.184 235.279 728.121C233.284 727.101 231.735 726.064 230.422 724.748C229.11 723.432 228.076 721.879 227.059 719.879C225.998 721.966 224.973 723.461 223.692 724.745C222.412 726.029 220.921 727.057 218.839 728.121ZM227.336 736.918C227.336 736.919 227.336 736.918 227.336 736.918Z" stroke="#FFD59C" stroke-width="2"/>
</g>
</g>
</g>
<path d="M1130.41 410.967C1120.89 416.461 1120.89 430.195 1130.41 435.688L1205.34 478.95C1214.86 484.444 1226.75 477.577 1226.75 466.59L1226.75 380.066C1226.75 369.079 1214.86 362.212 1205.34 367.705L1130.41 410.967Z" fill="#FFB24B"/>
<defs>
<clipPath id="clip0_2020_183">
<rect width="28" height="28" fill="white" transform="translate(1202.5 126.328)"/>
</clipPath>
<clipPath id="clip1_2020_183">
<rect width="28" height="28" fill="white" transform="translate(1202.5 126.328)"/>
</clipPath>
<clipPath id="clip2_2020_183">
<rect width="28" height="28" fill="white" transform="translate(1202.5 126.328)"/>
</clipPath>
<clipPath id="clip3_2020_183">
<rect width="23" height="23" fill="white" transform="translate(1125 96.8276)"/>
</clipPath>
<clipPath id="clip4_2020_183">
<rect width="23" height="23" fill="white" transform="translate(1125 96.8276)"/>
</clipPath>
<clipPath id="clip5_2020_183">
<rect width="23" height="23" fill="white" transform="translate(1125 96.8276)"/>
</clipPath>
<clipPath id="clip6_2020_183">
<rect width="20" height="20" fill="white" transform="translate(217.173 738.033) rotate(-90)"/>
</clipPath>
<clipPath id="clip7_2020_183">
<rect width="20" height="20" fill="white" transform="translate(217.173 738.033) rotate(-90)"/>
</clipPath>
<clipPath id="clip8_2020_183">
<rect width="20" height="20" fill="white" transform="translate(217.173 738.033) rotate(-90)"/>
</clipPath>
</defs>
</svg>
