<svg width="44" height="40" viewBox="0 0 44 40" fill="none" xmlns="http://www.w3.org/2000/svg">
<rect width="44" height="40" rx="8" fill="#303030"/>
<path d="M22.9821 26.0908C22.9914 26.0342 22.9957 25.9768 22.9949 25.9195V16.1513L23.0951 16.3643C23.1946 16.5725 23.3302 16.7619 23.4955 16.924L26.2637 19.6633C26.6117 20.024 27.1716 20.0847 27.5902 19.8069C28.0364 19.4837 28.1332 18.8638 27.8065 18.4223C27.7801 18.3866 27.7513 18.3528 27.7204 18.3209L22.7146 13.3675C22.3239 12.9804 21.69 12.98 21.2988 13.3667L21.298 13.3675L16.2922 18.3209C15.9018 18.7083 15.9027 19.3356 16.2942 19.7219C16.325 19.7523 16.3578 19.7807 16.3924 19.8069C16.811 20.0846 17.3709 20.024 17.7189 19.6633L20.4921 16.929C20.6391 16.7836 20.7624 16.6165 20.8575 16.4336L20.9926 16.1364V25.8649C20.9737 26.3711 21.3309 26.8151 21.8336 26.9101C22.3794 26.9977 22.8936 26.6309 22.9821 26.0908Z" fill="white"/>
</svg>
